# xmcd
#
# Track frame offsets: 
#        150
#        19716
#        30732
#        50725
#        72871
#        102674
#        132551
#        152285
#        167248
#        188340
#        213835
#        238439
#        267101
#        291019
#
# Disc length: 4111 seconds
#
# Revision: 0
# Processed by: cddbd v1.5.2PL0 Copyright (c) Steve Scherf et al.
# Submitted via: ExactAudioCopy v0.99pb5
#
DISCID=c7100d0e
DTITLE=Soda Stereo - Gira Me Veras Volver Cd #1
DYEAR=2008
DGENRE=Rock
TTITLE0=Juegos De Seduccion
TTITLE1=Tele-Ka
TTITLE2=Imagenes Retro
TTITLE3=Texturas
TTITLE4=Hombre Al Agua
TTITLE5=En La Ciudad De La Furia
TTITLE6=Picnic En El 4B
TTITLE7=Zoom
TTITLE8=Cuando Pase El Temblor
TTITLE9=Final Caja Negra
TTITLE10=Corazon Delator
TTITLE11=Signos
TTITLE12=Sobredosis De Tv
TTITLE13=Danza Rota
EXTD=
EXTT0=
EXTT1=
EXTT2=
EXTT3=
EXTT4=
EXTT5=
EXTT6=
EXTT7=
EXTT8=
EXTT9=
EXTT10=
EXTT11=
EXTT12=
EXTT13=
PLAYORDER=
